HIERARCHY
ROOT hip
{
	OFFSET 0.000000 0.000000 0.000000 
	CHANNELS 6 Xposition Yposition Zposition Xrotation Zrotation Yrotation
	JOINT abdomen
	{
		OFFSET 0.000000 3.402643 0.000000 
		CHANNELS 3 Xrotation Zrotation Yrotation
		JOINT chest
		{
			OFFSET 0.000000 8.438565 -0.680529 
			CHANNELS 3 Xrotation Zrotation Yrotation
			JOINT neck
			{
				OFFSET 0.000000 10.207942 -0.272212 
				CHANNELS 3 Xrotation Zrotation Yrotation
				JOINT head
				{
					OFFSET 0.000000 3.130431 0.000000 
					CHANNELS 3 Xrotation Zrotation Yrotation
					End Site
					{
						OFFSET 0.000000 3.130435 0.000000 
					}
				}
			}
			JOINT lCollar
			{
				OFFSET 3.470700 6.669187 -0.816635 
				CHANNELS 3 Yrotation Zrotation Xrotation
				JOINT lShldr
				{
					OFFSET 3.198488 0.000000 0.000000 
					CHANNELS 3 Zrotation Yrotation Xrotation
					JOINT lForeArm
					{
						OFFSET 10.139888 0.000000 0.000000 
						CHANNELS 3 Yrotation Zrotation Xrotation
						JOINT lHand
						{
							OFFSET 8.370511 0.000000 0.000000 
							CHANNELS 3 Zrotation Yrotation Xrotation
							End Site
							{
								OFFSET 4.083176 0.000000 0.000000 
							}
						}
					}
				}
			}
			JOINT rCollar
			{
				OFFSET -3.470700 6.669187 -0.816635 
				CHANNELS 3 Yrotation Zrotation Xrotation
				JOINT rShldr
				{
					OFFSET -3.198488 0.000000 0.000000 
					CHANNELS 3 Zrotation Yrotation Xrotation
					JOINT rForeArm
					{
						OFFSET -10.139888 0.000000 0.000000 
						CHANNELS 3 Yrotation Zrotation Xrotation
						JOINT rHand
						{
							OFFSET -8.370511 0.000000 0.000000 
							CHANNELS 3 Zrotation Yrotation Xrotation
							End Site
							{
								OFFSET -4.083176 0.000000 0.000000 
							}
						}
					}
				}
			}
		}
	}
	JOINT lThigh
	{
		OFFSET 5.308129 -1.633274 1.361059 
		CHANNELS 3 Xrotation Zrotation Yrotation
		JOINT lShin
		{
			OFFSET -2.041588 -20.007561 0.000000 
			CHANNELS 3 Xrotation Zrotation Yrotation
			JOINT lFoot
			{
				OFFSET 0.000000 -19.190928 -1.224953 
				CHANNELS 3 Xrotation Yrotation Zrotation
				End Site
				{
					OFFSET 0.000000 -2.449906 4.627600 
				}
			}
		}
	}
	JOINT rThigh
	{
		OFFSET -5.308129 -1.633274 1.361059 
		CHANNELS 3 Xrotation Zrotation Yrotation
		JOINT rShin
		{
			OFFSET 2.041588 -20.007561 0.000000 
			CHANNELS 3 Xrotation Zrotation Yrotation
			JOINT rFoot
			{
				OFFSET 0.000000 -19.190928 -1.224953 
				CHANNELS 3 Xrotation Yrotation Zrotation
				End Site
				{
					OFFSET 0.000000 -2.449906 4.627600 
				}
			}
		}
	}
}
MOTION
Frames: 9
Frame Time: 0.011111
50.505127 52.881935 79.700623 176.324661 179.647095 -6.814024 10.332016 -1.626079 0.755704 0.120946 4.381049 0.793558 -9.486848 -8.558895 0.625978 44.966030 -1.850234 5.745487 12.413046 -14.960623 4.251975 -25.555399 -31.252699 80.234474 -76.742142 9.171637 19.155859 6.992188 16.005859 -39.635979 -6.427974 8.898234 2.089853 62.577114 43.398853 29.568510 70.378426 -10.090152 16.102774 -7.001954 -15.996095 62.812504 -20.860598 6.187506 7.864455 34.088875 -5.187099 -2.546018 -12.722747 -4.726233 -1.642763 -2.487465 -2.848484 0.207326 56.860546 4.425292 4.335662 -14.893809 -13.823416 -2.482147 
50.412548 52.998596 79.198944 176.401611 -179.704941 -6.684196 10.241662 -2.406861 0.517250 0.084362 4.707281 0.755874 -9.643238 -8.371408 0.580249 45.529358 -2.142815 5.654146 12.413046 -14.960623 4.251975 -26.026775 -31.379112 80.205894 -76.338272 9.260723 18.956577 6.992188 16.005859 -39.626209 -6.427974 8.898234 2.089853 62.580585 43.123798 29.452478 70.090263 -10.110023 15.966501 -7.001954 -15.996095 62.578125 -19.957090 5.301066 8.476891 33.472420 -5.206454 -2.487502 -12.826488 -5.031938 -1.728655 -3.748278 -3.582322 -0.135743 58.217037 4.365098 4.405640 -16.116259 -13.973902 -2.822072 
50.311527 52.989216 78.735741 176.457123 -179.324097 -6.308320 10.425595 -2.832949 0.304389 -0.892578 5.132277 0.640363 -9.406131 -8.513285 0.471920 46.193462 -2.226879 5.713932 12.413046 -14.960623 4.251975 -26.531506 -30.924799 80.354713 -76.026497 9.325905 18.795849 6.992188 16.005859 -40.641838 -6.427974 8.898234 2.089853 62.339382 42.022663 29.000980 69.886124 -10.120439 15.867740 -7.001954 -15.996095 62.177731 -18.782450 4.518837 8.176339 32.975990 -5.216368 -2.460065 -13.293587 -5.222270 -1.768969 -5.007726 -4.031490 -0.727845 59.711452 4.287057 4.518332 -16.814062 -13.846763 -2.990813 
50.196743 52.994846 78.296608 176.571777 -179.118195 -6.042116 10.421194 -2.804445 -0.295645 -0.754278 5.267824 0.484605 -9.248199 -8.640656 0.645657 45.781967 -2.429348 5.981750 12.413046 -14.960623 4.251975 -27.065271 -30.222767 78.719475 -76.607841 9.202085 19.082359 6.992188 16.005859 -43.014885 -6.427974 8.898234 2.089853 62.294624 41.917988 29.318634 69.554436 -10.138853 15.707079 -7.001954 -15.996095 62.080074 -17.736078 3.932534 7.807313 32.499210 -5.225110 -2.423251 -13.755103 -5.220180 -1.803332 -6.187605 -4.303856 -1.213470 61.028286 4.218754 4.608562 -16.859772 -13.670302 -2.981372 
50.092274 53.002350 77.862785 176.834015 -178.949326 -6.064582 10.651518 -2.895975 -0.517446 -0.704852 5.319068 0.443268 -9.189775 -8.467028 0.674404 45.624966 -2.815534 5.892322 12.413046 -14.960623 4.251975 -27.649439 -30.770287 78.642616 -75.681824 9.393246 18.630711 6.992188 16.005859 -43.913326 -6.427974 8.898234 2.089853 62.281860 41.742302 29.530651 69.253845 -10.151850 15.559581 -7.001954 -15.996095 62.226563 -16.698032 3.534719 8.055018 32.149899 -5.240382 -2.374887 -14.167593 -5.343775 -1.875021 -7.248526 -4.555656 -1.404828 62.196728 4.168794 4.672992 -16.988365 -13.207297 -2.932029 
49.985931 53.013615 77.394890 177.174896 -178.937302 -6.254136 10.951510 -2.822465 -0.419954 -0.647285 5.150533 0.477588 -9.295781 -8.341198 0.666735 45.692337 -2.826455 5.837559 12.413046 -14.960623 4.251975 -27.940670 -31.024212 77.993881 -75.253967 9.474934 18.419634 6.992188 16.005859 -45.280506 -6.427974 8.898234 2.089853 62.472176 41.463470 29.419920 69.019783 -10.165567 15.457352 -7.001954 -15.996095 62.128910 -15.602978 3.309623 8.350766 31.944105 -5.225218 -2.372038 -14.603959 -5.326951 -1.880434 -8.142522 -4.696012 -1.595025 63.071415 4.111305 4.740615 -16.798012 -12.998508 -2.825768 
49.908051 53.059902 76.992981 177.026016 -178.784927 -5.677165 11.069644 -2.890830 -0.837305 -1.205214 5.297453 0.317560 -9.441787 -8.586864 0.570252 46.203209 -2.439476 5.804901 12.413046 -14.960623 4.251975 -28.209318 -30.818981 77.557503 -75.234024 9.480312 18.415710 6.992188 16.005859 -46.139885 -6.427974 8.898234 2.089853 62.556507 40.760662 29.076614 68.817337 -10.176102 15.367915 -7.001954 -15.996095 61.894531 -15.296724 2.908084 8.154230 31.863905 -5.230249 -2.349944 -14.717786 -5.617969 -1.955470 -9.568703 -4.940474 -2.373116 63.808350 4.062420 4.797281 -16.575275 -13.032285 -2.770804 
49.784824 53.134659 76.475975 177.366928 -178.624435 -5.870912 11.391839 -2.954440 -0.805549 -1.489756 5.278544 0.310016 -9.589264 -8.632365 0.491615 46.838367 -2.446931 5.732380 12.413046 -14.960623 4.251975 -28.515034 -30.669640 77.667892 -75.147873 9.491689 18.359446 6.992188 16.005859 -45.671131 -6.427974 8.898234 2.089853 62.583630 40.081718 28.923399 68.527557 -10.185398 15.233174 -7.001954 -15.996095 61.796875 -14.284650 2.469901 8.065763 31.804554 -5.230109 -2.357277 -15.237823 -5.602444 -1.967079 -10.364337 -5.230574 -2.449010 64.298241 4.061581 4.825491 -16.639273 -12.234394 -2.635132 
49.736031 53.175629 76.106277 177.081451 -178.603989 -5.121335 11.248847 -2.841633 -1.435817 -1.842056 5.414622 0.097368 -9.502305 -8.303204 0.558422 46.951111 -2.969790 5.827044 12.413046 -14.960623 4.251975 -28.872347 -30.614237 77.784584 -74.938347 9.528896 18.257793 6.992188 16.005859 -45.280506 -6.427974 8.898234 2.089853 62.567314 39.455074 28.846792 68.258636 -10.191461 15.108713 -7.001954 -15.996095 61.875004 -14.217338 2.245675 7.673658 31.753328 -5.240780 -2.348615 -15.568500 -6.063389 -2.121500 -11.782879 -5.300532 -3.203814 64.818878 4.023470 4.850779 -16.829338 -11.531333 -2.551020 
